<svg width="348" height="239" viewBox="0 0 348 239" fill="none" xmlns="http://www.w3.org/2000/svg">
<path d="M293.964 83.1893C348.685 47.4788 310.325 -2.41273 284.305 -22.8947C203.85 -85.4792 194.421 -12.5539 78.2236 -66.2183C-37.9737 -119.883 -14.6789 -82.117 -161.831 99.1404C-308.983 280.398 -116.049 278.283 -92.4184 242.755C-68.7877 207.228 -26.1506 223.818 26.8124 278.535C79.7754 333.252 212.921 236.76 189.826 178.607C166.732 120.454 225.562 127.827 293.964 83.1893Z" stroke="white" stroke-opacity="0.13"/>
<path d="M269.753 85.1526C319.058 52.9414 284.485 7.92414 261.035 -10.5581C188.529 -67.0326 180.042 -1.24018 75.3288 -49.6713C-29.3842 -98.1025 -8.38825 -64.0271 -140.965 99.4853C-273.541 262.998 -99.6874 261.115 -78.3982 229.064C-57.109 197.014 -18.6863 211.988 29.046 261.36C76.7783 310.733 196.744 223.694 175.926 171.225C155.108 118.756 208.121 125.417 269.753 85.1526Z" stroke="white" stroke-opacity="0.13"/>
<path d="M250.973 86.5726C296.071 57.142 264.457 16.0243 243.012 -0.855725C176.706 -52.4344 168.935 7.6665 73.1718 -36.5606C-22.5915 -80.7877 -3.39317 -49.6634 -124.668 99.7186C-245.942 249.101 -86.9369 247.358 -67.4618 218.078C-47.9867 188.798 -12.8475 202.471 30.8016 247.565C74.4507 292.66 184.182 213.137 165.149 165.21C146.115 117.284 194.599 123.361 250.973 86.5726Z" stroke="white" stroke-opacity="0.13"/>
<path d="M233.247 88.4919C274.355 61.647 245.533 24.1338 225.984 8.73287C165.537 -38.3264 158.459 16.5013 71.1614 -23.8538C-16.1361 -64.2089 1.36685 -35.8134 -109.169 100.453C-219.706 236.72 -74.7633 235.143 -57.0131 208.434C-39.2628 181.724 -7.23035 194.201 32.5621 235.343C72.3545 276.485 172.374 203.947 155.02 160.224C137.666 116.5 181.863 122.048 233.247 88.4919Z" stroke="white" stroke-opacity="0.13"/>
<path d="M213.975 89.9683C250.758 65.9176 224.961 32.2965 207.464 18.4923C153.364 -23.688 147.037 25.4441 68.9093 -10.7323C-9.21863 -46.9086 6.44877 -21.4598 -92.45 100.638C-191.349 222.736 -61.6405 221.344 -45.7598 197.411C-29.8791 173.478 -1.21152 184.663 34.4045 221.538C70.0205 258.412 159.517 193.423 143.981 154.238C128.444 115.054 167.997 120.032 213.975 89.9683Z" stroke="white" stroke-opacity="0.13"/>
<path d="M193.713 91.5044C225.956 70.4427 203.348 41.0086 188.014 28.9243C140.6 -8.0007 135.049 35.0176 66.5748 3.352C-1.89986 -28.3136 11.8297 -6.03366 -74.8678 100.88C-161.565 207.793 -47.8768 206.56 -33.9548 185.604C-20.0328 164.648 5.09282 174.438 36.306 206.72C67.5191 239.001 145.97 182.09 132.356 147.784C118.743 113.477 153.41 117.831 193.713 91.5044Z" stroke="white" stroke-opacity="0.13"/>
</svg>
