<svg width="387" height="239" viewBox="0 0 387 239" fill="none" xmlns="http://www.w3.org/2000/svg">
<path d="M29.187 113.977C-36.0135 156.526 9.69246 215.971 40.6955 240.375C136.557 314.944 147.791 228.054 286.24 291.995C424.688 355.936 396.932 310.938 572.263 94.9715C747.594 -120.995 517.714 -118.476 489.558 -76.1446C461.403 -33.8137 410.601 -53.581 347.496 -118.776C284.391 -183.97 125.749 -69.0007 153.266 0.28806C180.783 69.5769 110.688 60.7911 29.187 113.977Z" stroke="white" stroke-opacity="0.13"/>
<path d="M58.0344 111.638C-0.712673 150.017 40.4809 203.655 68.4211 225.676C154.812 292.965 164.924 214.574 289.689 272.28C414.454 329.985 389.437 289.384 547.401 94.5604C705.365 -100.263 498.219 -98.0196 472.853 -59.8321C447.487 -21.6445 401.707 -39.4852 344.834 -98.3122C287.962 -157.139 145.023 -53.4335 169.828 9.0828C194.633 71.5991 131.468 63.6635 58.0344 111.638Z" stroke="white" stroke-opacity="0.13"/>
<path d="M80.4106 109.946C26.676 145.012 64.3443 194.004 89.8953 214.116C168.899 275.572 178.158 203.962 292.259 256.658C406.36 309.354 383.486 272.27 527.983 94.2824C672.481 -83.7052 483.027 -81.6286 459.823 -46.7418C436.618 -11.855 394.75 -28.1462 342.743 -81.8759C290.735 -135.606 159.991 -40.8542 182.669 16.2497C205.347 73.3536 147.579 66.1129 80.4106 109.946Z" stroke="white" stroke-opacity="0.13"/>
<path d="M101.53 107.659C52.5509 139.645 86.8918 184.341 110.185 202.691C182.206 258.762 190.64 193.435 294.654 241.518C398.669 289.601 377.814 255.768 509.517 93.4071C641.22 -68.9538 468.523 -67.0751 447.373 -35.2509C426.224 -3.42661 388.057 -18.292 340.645 -67.3124C293.233 -116.333 174.06 -29.9048 194.737 22.1914C215.414 74.2875 162.754 67.6772 101.53 107.659Z" stroke="white" stroke-opacity="0.13"/>
<path d="M124.492 105.9C80.6657 134.556 111.404 174.615 132.251 191.063C196.711 241.321 204.249 182.78 297.338 225.884C390.427 268.988 371.759 238.666 489.596 93.1871C607.433 -52.2915 452.887 -50.6329 433.965 -22.1171C415.043 6.39875 380.886 -6.92821 338.45 -50.8641C296.014 -94.7999 189.379 -17.3658 207.891 29.3225C226.402 76.0108 179.276 70.0794 124.492 105.9Z" stroke="white" stroke-opacity="0.13"/>
<path d="M148.635 104.07C110.218 129.165 137.155 164.235 155.426 178.634C211.919 222.629 218.532 171.374 300.119 209.103C381.706 246.832 365.348 220.286 468.647 92.8991C571.947 -34.4875 436.488 -33.0184 419.9 -8.04924C403.312 16.9199 373.375 5.25522 336.184 -33.2081C298.994 -71.6714 205.521 -3.86233 221.741 37.0135C237.961 77.8894 196.656 72.7013 148.635 104.07Z" stroke="white" stroke-opacity="0.13"/>
</svg>
