<svg width="36" height="35" viewBox="0 0 36 35" fill="none" xmlns="http://www.w3.org/2000/svg">
<path d="M20.7553 21.558C25.1438 19.194 29.2239 18.7934 29.8641 20.6551C30.5058 22.5246 27.4697 25.9458 23.0768 28.3072C18.6884 30.6713 14.6083 31.0719 13.968 29.2101C13.3278 27.3484 16.3669 23.9221 20.7553 21.558ZM3.51668 15.5635C10.4701 11.0537 17.6141 10.7365 19.5042 14.8742C20.1547 16.2997 20.0975 18.0628 19.4627 19.9483C22.8863 17.4485 26.9689 16.4208 30.701 17.2354C30.2734 12.8921 28.1137 9.0478 24.4491 6.93205C17.8184 3.10381 8.76094 6.37811 4.22028 14.2428C3.9616 14.6806 3.73101 15.1208 3.51668 15.5635Z" fill="white" fill-opacity="0.58"/>
</svg>
