<svg width="15" height="27" viewBox="0 0 15 27" fill="none" xmlns="http://www.w3.org/2000/svg">
<path d="M13.2694 20.9907L13.2694 20.9907C13.8294 20.428 13.8273 19.5179 13.2645 18.9578C12.7018 18.3977 11.7917 18.3999 11.2316 18.9626L11.2316 18.9626L8.81302 21.393L8.81302 2.74997C8.81302 1.95605 8.16945 1.31247 7.37552 1.31247C6.5816 1.31247 5.93802 1.95605 5.93802 2.74997L5.93802 21.393L3.51943 18.9627L3.51941 18.9626C2.95937 18.3999 2.04923 18.3978 1.48652 18.9578C0.923628 19.518 0.921743 20.4282 1.48161 20.9908L1.83602 20.6381L1.48162 20.9908L6.34462 25.8773L6.35661 25.8894L6.35747 25.8903C6.35895 25.8917 6.3604 25.8932 6.36179 25.8945C6.92291 26.4527 7.82963 26.4509 8.38892 25.8948C8.3912 25.8926 8.39367 25.8901 8.3963 25.8875L13.2694 20.9907Z" fill="#61C277" stroke="#61C277"/>
</svg>
