<svg width="15" height="27" viewBox="0 0 15 27" fill="none" xmlns="http://www.w3.org/2000/svg">
<path d="M1.48159 6.63424L1.48159 6.63424L6.35466 1.73756C6.35735 1.73482 6.35987 1.73232 6.3622 1.73005M1.48159 6.63424L6.71189 2.08747L6.35894 1.73332C6.36823 1.72405 6.37588 1.71718 6.37911 1.71431L6.38025 1.7133C6.37777 1.71548 6.37113 1.72138 6.363 1.72927C6.36274 1.72953 6.36247 1.72978 6.3622 1.73005M1.48159 6.63424C0.921627 7.19694 0.923705 8.10708 1.48647 8.66719C2.04918 9.22724 2.95934 9.22508 3.51939 8.66237L3.51941 8.66235L5.938 6.23198M1.48159 6.63424L5.938 6.23198M6.3622 1.73005C6.9215 1.17412 7.82813 1.17235 8.38921 1.73043C8.39043 1.73161 8.39167 1.73284 8.39295 1.73411L8.39441 1.73556L8.4065 1.74773L13.2694 6.63419L12.915 6.98689L13.2694 6.6342C13.8293 7.1968 13.8274 8.107 13.2645 8.66716C12.7018 9.22719 11.7917 9.22502 11.2316 8.66232L11.2316 8.66231L8.813 6.23201L8.813 24.875C8.813 25.6689 8.16942 26.3125 7.3755 26.3125C6.58158 26.3125 5.938 25.6689 5.938 24.875L5.938 6.23198M6.3622 1.73005C6.36078 1.73146 6.35937 1.73288 6.35795 1.7343L5.938 6.23198M8.393 1.73421C8.39346 1.73466 8.39392 1.73512 8.39438 1.73559L8.393 1.73421Z" fill="#363062" stroke="#363062"/>
</svg>
